<svg width="16" height="16" viewBox="0 0 16 16" fill="none" xmlns="http://www.w3.org/2000/svg">
<g id="calendar_today">
<mask id="mask0_1629_6524" style="mask-type:alpha" maskUnits="userSpaceOnUse" x="0" y="0" width="16" height="16">
<rect id="Bounding box" y="0.259766" width="15.0984" height="15.0984" fill="#D9D9D9"/>
</mask>
<g mask="url(#mask0_1629_6524)">
<path id="calendar_today_2" d="M3.14541 14.0996C2.7994 14.0996 2.5032 13.9764 2.2568 13.73C2.01041 13.4836 1.88721 13.1874 1.88721 12.8414V4.03398C1.88721 3.68797 2.01041 3.39177 2.2568 3.14537C2.5032 2.89898 2.7994 2.77578 3.14541 2.77578H3.77451V1.51758H5.03271V2.77578H10.0655V1.51758H11.3237V2.77578H11.9528C12.2988 2.77578 12.595 2.89898 12.8414 3.14537C13.0878 3.39177 13.211 3.68797 13.211 4.03398V12.8414C13.211 13.1874 13.0878 13.4836 12.8414 13.73C12.595 13.9764 12.2988 14.0996 11.9528 14.0996H3.14541ZM3.14541 12.8414H11.9528V6.55037H3.14541V12.8414ZM3.14541 5.29218H11.9528V4.03398H3.14541V5.29218Z" fill="#FC7089"/>
</g>
</g>
</svg>
