<svg width="19" height="19" viewBox="0 0 19 19" fill="none" xmlns="http://www.w3.org/2000/svg">
<g id="history">
<mask id="mask0_1629_6518" style="mask-type:alpha" maskUnits="userSpaceOnUse" x="0" y="0" width="19" height="19">
<rect id="Bounding box" y="0.367188" width="18.1181" height="18.1181" fill="#D9D9D9"/>
</mask>
<g mask="url(#mask0_1629_6518)">
<path id="history_2" d="M9.05892 16.2214C7.32261 16.2214 5.80962 15.6457 4.51997 14.4945C3.23032 13.3432 2.49112 11.9057 2.30239 10.182H3.84998C4.02613 11.4905 4.60804 12.5726 5.59573 13.4282C6.58342 14.2837 7.73781 14.7115 9.05892 14.7115C10.531 14.7115 11.7798 14.1988 12.8052 13.1734C13.8306 12.1479 14.3434 10.8992 14.3434 9.42709C14.3434 7.955 13.8306 6.70623 12.8052 5.6808C11.7798 4.65537 10.531 4.14265 9.05892 4.14265C8.19077 4.14265 7.37923 4.34396 6.62431 4.74659C5.86939 5.14921 5.234 5.70282 4.71814 6.40741H6.79417V7.91725H2.26465V3.38773H3.77449V5.16179C4.41617 4.35655 5.1994 3.73374 6.12417 3.29337C7.04895 2.853 8.0272 2.63281 9.05892 2.63281C10.0026 2.63281 10.8865 2.81211 11.7106 3.17069C12.5347 3.52928 13.2519 4.01369 13.8621 4.62391C14.4723 5.23414 14.9567 5.95131 15.3153 6.77543C15.6739 7.59955 15.8532 8.48344 15.8532 9.42709C15.8532 10.3707 15.6739 11.2546 15.3153 12.0787C14.9567 12.9029 14.4723 13.62 13.8621 14.2303C13.2519 14.8405 12.5347 15.3249 11.7106 15.6835C10.8865 16.0421 10.0026 16.2214 9.05892 16.2214ZM11.1727 12.5977L8.304 9.72906V5.65249H9.81384V9.12512L12.2296 11.5409L11.1727 12.5977Z" fill="#374957"/>
</g>
</g>
</svg>
